<svg data-v-0dd9719b="" version="1.0" xmlns="http://www.w3.org/2000/svg" xmlns:xlink="http://www.w3.org/1999/xlink" width="100%" height="100%" viewBox="0 0 340.000000 250.000000" preserveAspectRatio="xMidYMid meet" color-interpolation-filters="sRGB" style="margin: auto;"> <rect data-v-0dd9719b="" x="0" y="0" width="100%" height="100%" fill="#fff" fill-opacity="1" class="background"></rect> <rect data-v-0dd9719b="" x="0" y="0" width="100%" height="100%" fill="url(#watermark)" fill-opacity="1" class="watermarklayer"></rect> <g data-v-0dd9719b="" fill="#333" class="icon-text-wrapper icon-svg-group iconsvg" transform="translate(48.295005798339844,94.98378944396973)"><g class="iconsvg-imagesvg" transform="translate(0,0)"><g><rect fill="#333" fill-opacity="0" stroke-width="2" x="0" y="0" width="60" height="60.03241750545294" class="image-rect"></rect> <svg x="0" y="0" width="60" height="60.03241750545294" filtersec="colorsb1370114595" class="image-svg-svg primary" style="overflow: visible;"><svg xmlns="http://www.w3.org/2000/svg" viewBox="-0.01946367137134075 -0.05946355313062668 74.44893646240234 74.48896026611328"><title>资源 127</title><path d="M44.08 70.52c-10.88 0-27.26.28-33.51.4l-1.18-1.17a12 12 0 0 1 17-17zM65 21.63a12 12 0 0 1-17 0L30.31 3.88c10.88.05 27.23-.26 33.52-.4L65 4.67a12 12 0 0 1 0 16.96z" fill="#49c7ff"></path><path d="M53.94 70.9L3.51 20.47a12 12 0 0 1 0-17 12 12 0 0 1 17 0L70.9 53.94a12 12 0 0 1 0 17 12 12 0 0 1-16.96-.04z" fill="#333"></path></svg></svg> <!----></g></g> <g transform="translate(67,2.0399608612060547)"><g data-gra="path-name" fill-rule="" class="tp-name iconsvg-namesvg" transform="translate(0,0)"><g transform="scale(1)"><g><path d="M43.02-2.5L43.02 1.05 2.32 1.05 2.32-2.5 18.33-2.5 18.33-35.91 24.25-35.91 24.25-22.89 40.21-22.89 40.21-19.34 24.25-19.34 24.25-2.5 43.02-2.5ZM61.48-21L61.48-21Q58.71-23.2 57.49-23.81L57.49-23.81Q61.56-28.33 64.19-36.83L64.19-36.83 69.46-35.47Q69.11-34.42 68.01-31.83L68.01-31.83 87.61-31.83 87.61-28.72 66.56-28.72Q64.63-24.82 61.48-21ZM60.38-31.62L57.75-28.19Q54.5-31.13 49.72-33.59L49.72-33.59 51.92-36.26Q57.97-33.59 60.38-31.62L60.38-31.62ZM57.53-19.21L54.94-15.74Q51.65-18.81 47.4-21.09L47.4-21.09 49.55-23.72Q55.6-20.92 57.53-19.21L57.53-19.21ZM52.97 3.07L52.97 3.07 48.41 0.31Q51.35-5.57 54.37-14.03L54.37-14.03 58.71-11.01Q56.3-4.38 52.97 3.07ZM74.5-6.23L79.37-6.23Q79.63-8.68 79.85-12.54L79.85-12.54 71.65-12.54Q75.77-9.38 76.87-7.85L76.87-7.85 74.5-6.23ZM66.04-6.23L73.4-6.23Q71.08-9.3 69.02-11.01L69.02-11.01 71.43-12.54 67-12.54 66.04-6.23ZM67.4-15.74L74.15-15.74Q72.75-17.58 71.61-18.68 70.47-19.78 70.11-20.13L70.11-20.13 72.26-21.53 68.05-21.53Q67.88-19.64 67.4-15.74L67.4-15.74ZM75.33-15.74L80.07-15.74 80.33-21.53 72.79-21.53Q76.34-18.81 77.48-17.28L77.48-17.28 75.33-15.74ZM76.6 2.85L76.6 2.85Q74.89 2.85 72.57 2.72L72.57 2.72Q72.53 2.06 72.22 0.96 71.91-0.13 71.87-0.18L71.87-0.18Q75.95 0.09 77.13 0.09L77.13 0.09Q77.44 0.09 77.52 0.04L77.52 0.04Q78.18-0.18 78.88-3.24L78.88-3.24 60.12-3.24Q60.82-6.71 61.61-12.54L61.61-12.54 57.62-12.54 57.62-15.74 62.05-15.74Q62.66-20.61 63.05-24.51L63.05-24.51Q84.23-24.51 85.81-24.42L85.81-24.42 85.72-23.02Q85.64-20.52 85.51-18.37L85.51-18.37 85.42-15.74 88.75-15.74 88.75-12.54 85.15-12.54Q84.98-8.99 84.67-6.23L84.67-6.23 87.57-6.23 87.57-3.24 84.28-3.24Q83.75-0.13 83.01 0.7L83.01 0.7Q81.56 2.63 78.97 2.76L78.97 2.76Q78.01 2.85 76.6 2.85ZM95.59-3.11L95.59-3.11Q93.97-4.52 92-5.83L92-5.83Q93.44-7.15 95.17-9.93 96.91-12.72 97.87-15.79L97.87-15.79 103.31-14.38Q101.07-8.73 95.59-3.11ZM100.06 3.81L100.06 3.81Q99.05 2.19 98.13 1.32L98.13 1.32 97.21 0.44Q100.24-1.49 102.12-4.34 104.01-7.19 104.54-10.24 105.06-13.29 105.06-15.87L105.06-15.87 105.06-18.81 92.92-18.81 92.92-22.23 109.62-22.23 109.62-28.19 97.04-28.19 97.04-31.57 109.62-31.57 109.62-36.48 115.59-36.48 115.59-31.57 128.39-31.57 128.39-28.19 115.59-28.19 115.59-22.23 132.47-22.23 132.47-18.81 121.11-18.81 121.11-1.32Q121.11 1.58 119.01 2.32L119.01 2.32Q117.73 2.89 115.85 3.05 113.96 3.2 110.63 3.2L110.63 3.2Q110.5 2.24 110.08 1.01 109.67-0.22 109.58-0.39L109.58-0.39 114.36-0.35Q115.02-0.35 115.13-0.42 115.24-0.48 115.24-18.81L115.24-18.81 110.81-18.81 110.81-15.74Q110.81-12.89 110.24-9.6 109.67-6.31 107.65-3.05 105.63 0.22 100.06 3.81ZM133.13-4.95L128.04-2.76Q126.24-7.85 122.08-14.21L122.08-14.21 126.5-16Q131.63-8.77 133.13-4.95L133.13-4.95ZM148.87-1.14L148.87-1.14Q147.6-2.81 146.74-3.68 145.89-4.56 145.89-4.6L145.89-4.6Q150.31-7.85 154.87-15.08L154.87-15.08Q150.75-20.78 147.51-24.6L147.51-24.6 151.54-26.66Q155.23-22.32 157.42-19.56L157.42-19.56Q159.17-22.89 160.88-28.15L160.88-28.15 165.79-26.84Q164.08-21.4 160.71-15.22L160.71-15.22Q165.62-8.59 167.81-4.74L167.81-4.74 163.12-1.97Q160.66-6.8 157.94-10.7L157.94-10.7Q154.87-5.96 148.87-1.14ZM140.71 4.17L140.71 4.17Q137.86 1.1 136.76 0.61L136.76 0.61Q141.5-6.27 141.5-22.32L141.5-22.32 141.5-34.68 172.81-34.68Q172.72-28.5 172.72-23.33L172.72-23.33Q172.72-19.86 172.79-14.56 172.85-9.25 173.42-5.13 173.99-1.01 174.52-1.01L174.52-1.01Q174.26-1.01 174.26-1.8L174.26-1.8Q174.26-2.28 174.43-3.64 174.61-5 174.69-9.73L174.69-9.73Q177.72-5.17 178.73-4.34L178.73-4.34Q178.51-0.83 177.72 0.96 176.93 2.76 174.21 2.76L174.21 2.76Q170.35 2.76 169.06-1.01 167.77-4.78 167.46-12.28L167.46-12.28Q167.15-18.9 167.15-28.76L167.15-28.76 167.15-31.26 147.29-31.26 147.29-22.32Q147.29-18.68 146.87-14.08 146.46-9.47 145.21-5 143.96-0.53 140.71 4.17Z" transform="translate(-2.319999933242798, 36.83000183105469)"></path></g> <!----> <!----> <!----> <!----> <!----> <!----> <!----></g></g> <g data-gra="path-slogan" fill-rule="" class="tp-slogan iconsvg-slogansvg" fill="#333" transform="translate(29.164169311523438,47)"><!----> <!----> <g transform="scale(1, 1)"><g transform="scale(1)"><path d="M7.17-6.09L7.17-6.09L6.09-6.09Q6-7.73 3.94-7.83L3.94-7.83Q2.02-7.78 2.02-6.33L2.02-6.33Q2.02-5.39 3.05-5.25L3.05-5.25L5.48-4.69Q7.41-4.22 7.41-2.34L7.41-2.34Q7.36 0.05 4.03 0.14L4.03 0.14Q2.20 0.14 1.45-0.61L1.45-0.61Q0.52-1.31 0.56-2.77L0.56-2.77L1.69-2.77Q1.73-0.80 4.03-0.75L4.03-0.75Q6.28-0.80 6.33-2.20L6.33-2.20Q6.52-3.38 4.45-3.75L4.45-3.75L2.67-4.13Q0.84-4.64 0.84-6.19L0.84-6.19Q0.98-8.72 3.84-8.81L3.84-8.81Q7.08-8.81 7.17-6.09ZM10.03-5.06L14.53-5.06L14.53-8.58L15.70-8.58L15.70 0L14.53 0L14.53-3.98L10.03-3.98L10.03 0L8.86 0L8.86-8.58L10.03-8.58L10.03-5.06ZM23.16 0L22.31-2.48L18.84-2.48L17.95 0L16.78 0L20.02-8.58L21.33-8.58L24.42 0L23.16 0ZM20.58-7.31L19.22-3.52L21.89-3.52L20.63-7.31L20.58-7.31ZM26.86-8.58L31.17-1.64L31.17-8.58L32.30-8.58L32.30 0L30.98 0L26.63-6.94L26.58-6.94L26.58 0L25.45 0L25.45-8.58L26.86-8.58ZM40.50-3.61L37.88-3.61L37.88-4.59L41.63-4.59L41.63 0L40.88 0L40.59-1.08Q39.61 0.09 37.78 0.14L37.78 0.14Q36.05 0.14 35.11-0.75L35.11-0.75Q33.70-2.06 33.75-4.36L33.75-4.36Q34.08-8.63 37.83-8.81L37.83-8.81Q41.02-8.63 41.48-6L41.48-6L40.36-6Q39.89-7.78 37.78-7.83L37.78-7.83Q35.11-7.64 34.97-4.31L34.97-4.31Q34.97-0.75 37.83-0.75L37.83-0.75Q38.86-0.75 39.61-1.31L39.61-1.31Q40.55-2.06 40.50-3.61L40.50-3.61ZM44.58-5.06L49.08-5.06L49.08-8.58L50.25-8.58L50.25 0L49.08 0L49.08-3.98L44.58-3.98L44.58 0L43.41 0L43.41-8.58L44.58-8.58L44.58-5.06ZM57.70 0L56.86-2.48L53.39-2.48L52.50 0L51.33 0L54.56-8.58L55.88-8.58L58.97 0L57.70 0ZM55.13-7.31L53.77-3.52L56.44-3.52L55.17-7.31L55.13-7.31ZM60.19-8.58L61.36-8.58L61.36 0L60.19 0L60.19-8.58ZM73.83-6.05L73.83-6.05L72.70-6.05Q72.28-7.78 70.31-7.83L70.31-7.83Q67.59-7.69 67.50-4.36L67.50-4.36Q67.50-0.80 70.36-0.80L70.36-0.80Q72.33-0.84 72.80-3.19L72.80-3.19L73.92-3.19Q73.41 0.05 70.13 0.14L70.13 0.14Q66.38 0 66.28-4.31L66.28-4.31Q66.47-8.63 70.31-8.81L70.31-8.81Q73.36-8.72 73.83-6.05ZM76.45-5.06L80.95-5.06L80.95-8.58L82.13-8.58L82.13 0L80.95 0L80.95-3.98L76.45-3.98L76.45 0L75.28 0L75.28-8.58L76.45-8.58L76.45-5.06ZM84.09-8.58L85.27-8.58L85.27 0L84.09 0L84.09-8.58ZM92.77-3.89L88.55-3.89L88.55 0L87.38 0L87.38-8.58L93.33-8.58L93.33-7.59L88.55-7.59L88.55-4.92L92.77-4.92L92.77-3.89ZM95.81-1.03L100.97-1.03L100.97 0L94.64 0L94.64-8.58L100.88-8.58L100.88-7.59L95.81-7.59L95.81-4.92L100.50-4.92L100.50-3.89L95.81-3.89L95.81-1.03ZM103.88-8.58L108.19-1.64L108.19-8.58L109.31-8.58L109.31 0L108 0L103.64-6.94L103.59-6.94L103.59 0L102.47 0L102.47-8.58L103.88-8.58ZM117.52-3.61L114.89-3.61L114.89-4.59L118.64-4.59L118.64 0L117.89 0L117.61-1.08Q116.63 0.09 114.80 0.14L114.80 0.14Q113.06 0.14 112.13-0.75L112.13-0.75Q110.72-2.06 110.77-4.36L110.77-4.36Q111.09-8.63 114.84-8.81L114.84-8.81Q118.03-8.63 118.50-6L118.50-6L117.38-6Q116.91-7.78 114.80-7.83L114.80-7.83Q112.13-7.64 111.98-4.31L111.98-4.31Q111.98-0.75 114.84-0.75L114.84-0.75Q115.88-0.75 116.63-1.31L116.63-1.31Q117.56-2.06 117.52-3.61L117.52-3.61Z" transform="translate(-0.5602678571428572, 8.8125)"></path></g></g></g></g></g><defs v-gra="od"></defs></svg>